<?xml version="1.0" encoding="utf-8"?>
<!-- Generator: Adobe Illustrator 25.0.1, SVG Export Plug-In . SVG Version: 6.00 Build 0)  -->
<svg version="1.1" id="Layer_1" xmlns="http://www.w3.org/2000/svg" xmlns:xlink="http://www.w3.org/1999/xlink" x="0px" y="0px"
	 viewBox="0 0 113.76 93.6" style="enable-background:new 0 0 113.76 93.6;" xml:space="preserve">
<g>
	<path d="M16.73,19.86c0.05-0.94,0.09-1.72,0.14-2.58c2.4,0,4.72,0,7.11,0c0.04,0.84,0.07,1.63,0.12,2.54
		c2.09,0,4.12,0.06,6.13-0.05c0.35-0.02,0.82-0.69,0.95-1.14c1.2-4,2.35-8.02,3.5-12.04c0.71-2.46,1.03-2.71,3.59-2.71
		c12.53,0,25.07,0,37.6,0c2.5,0,2.86,0.24,3.67,2.55c1.43,4.1,2.87,8.19,4.26,12.31c0.34,1.01,0.9,1.26,1.96,1.25
		c6.94-0.09,13.89-0.14,20.83-0.08c2.63,0.02,4.31,2.03,4.31,4.77c0,19.07,0,38.14,0,57.21c0,1.04,0.03,2.07,0.02,3.11
		c-0.03,2.96-1.92,4.87-4.87,4.88c-5.87,0.01-11.74,0-17.6,0c-26.3,0-52.61-0.04-78.91,0.04c-5.01,0.02-6.16-2.18-6.16-6.16
		C3.41,64.51,3.39,45.28,3.4,26.05c0-0.64,0.04-1.28,0.11-1.91c0.32-2.72,2.05-4.27,4.82-4.28C11.07,19.84,13.82,19.86,16.73,19.86z
		 M57.24,89.44c16.16,0,32.33,0,48.49,0c3.1,0,4.7-1.53,4.7-4.59c0.01-19.99,0.01-39.97,0-59.96c0-2.89-1.67-4.49-4.56-4.5
		c-6.75,0-13.49-0.03-20.24,0.02c-1.28,0.01-1.96-0.37-2.37-1.62c-1.33-4.05-2.75-8.07-4.15-12.09c-0.78-2.22-1.01-2.36-3.38-2.36
		c-12.29,0-24.59,0-36.88,0c-0.36,0-0.72,0.02-1.08,0.03c-1.75,0.09-2.03,0.3-2.51,1.96c-1.2,4.09-2.39,8.18-3.58,12.27
		c-0.52,1.77-0.52,1.77-2.4,1.77c-6.79,0-13.57,0-20.36,0c-3.39,0-5,1.59-5,4.95c0,19.67,0,39.34,0,59c0,3.62,1.47,5.09,5.07,5.1
		C25.07,89.44,41.16,89.44,57.24,89.44z"/>
	<path d="M34.82,49.74c-1.29-0.57-2.41-0.99-3.45-1.53c-3.93-2.05-4.89-5.5-2.43-9.15c4.66-6.91,10.99-11.93,18.4-15.6
		c2.2-1.09,4.6-1.54,7.08-1.48c2.71,0.07,5.45-0.09,8.12,0.26c1.97,0.26,3.99,0.91,5.75,1.84c6.13,3.24,11.47,7.52,15.8,12.95
		c0.91,1.14,1.73,2.42,2.23,3.78c1.11,3,0.02,5.55-2.81,7.03c-1.19,0.62-2.45,1.12-3.75,1.71c1.99,0.41,3.92,0.73,5.81,1.21
		c2.65,0.68,5.12,1.76,7.27,3.5c3.58,2.91,4.56,6.92,2.68,11.14c-1.48,3.33-4.01,5.81-6.69,8.17c-5.85,5.15-12.83,7.57-20.42,8.56
		c-7.47,0.97-14.94,0.96-22.42,0.02C36.5,80.96,28.3,77.25,21.89,70c-1.84-2.08-3.29-4.39-3.77-7.21c-0.54-3.14,0.39-5.78,2.7-7.89
		c3.34-3.06,7.45-4.34,11.85-4.9C33.31,49.91,33.97,49.84,34.82,49.74z M64.44,76.83c0.62,0,1.01,0.03,1.4-0.01
		c2.26-0.24,4.53-0.39,6.76-0.77c3.96-0.69,7.61-2.15,10.46-5.1c3-3.1,4.05-6.82,2.8-11c-1.2-4.02-4.28-5.94-8.19-6.28
		c-4.35-0.37-8.74-0.28-13.11-0.38c-0.1,0-0.2,0.11-0.12,0.06C64.44,61.22,64.44,68.97,64.44,76.83z M49.9,53.34
		c-1.34-0.07-2.84-0.14-4.34-0.21c-3.51-0.17-7.02-0.13-10.44,0.79c-4.71,1.27-7.36,4.88-7.07,9.75c0.25,4.13,2.34,7.18,5.79,9.37
		c4.83,3.07,10.27,3.62,16.06,3.92C49.9,69.11,49.9,61.35,49.9,53.34z M61.36,26.89c0.16,1.23,0.32,2.36,0.45,3.49
		c0.58,5.39,1.17,10.77,1.72,16.16c0.09,0.89,0.28,1.54,1.38,1.48c2.82-0.16,5.67-0.12,8.47-0.49c4.31-0.57,6.22-3.87,4.88-8.03
		c-0.82-2.54-2.08-4.83-3.85-6.82C71,28.89,66.93,26.52,61.36,26.89z M52.9,26.9c-0.43-0.03-0.74-0.07-1.05-0.07
		c-8.58-0.1-14.67,7.78-16.06,13.88c-0.66,2.9,0.8,5.59,3.39,6.34c3.66,1.05,7.44,1.14,11.32,0.94C51.3,40.95,52.09,34,52.9,26.9z"
		/>
	<path d="M107.15,30.42c-0.04,3.41-2.61,5.87-6.07,5.82c-3.38-0.05-5.83-2.63-5.8-6.11c0.03-3.28,2.65-5.8,6.03-5.78
		C104.68,24.36,107.18,26.96,107.15,30.42z M95.76,30.3c0.01,3.1,2.45,5.5,5.59,5.51c2.86,0.01,5.37-2.57,5.37-5.5
		c0-3.1-2.46-5.48-5.61-5.45C98.13,24.89,95.75,27.31,95.76,30.3z"/>
	<path d="M101.19,33.79c-1.96-0.01-3.48-1.54-3.49-3.49c-0.01-1.93,1.57-3.53,3.48-3.53c2,0,3.57,1.59,3.55,3.58
		C104.71,32.29,103.15,33.8,101.19,33.79z"/>
</g>
</svg>
