<?xml version="1.0" standalone="no"?>
<!DOCTYPE svg PUBLIC "-//W3C//DTD SVG 20010904//EN"
 "http://www.w3.org/TR/2001/REC-SVG-20010904/DTD/svg10.dtd">
<svg version="1.0" xmlns="http://www.w3.org/2000/svg"
 width="108.000000pt" height="108.000000pt" viewBox="0 0 108.000000 108.000000"
 preserveAspectRatio="xMidYMid meet">
<metadata>
Created by potrace 1.11, written by Peter Selinger 2001-2013
</metadata>
<g transform="translate(0.000000,108.000000) scale(0.100000,-0.100000)"
fill="#000000" stroke="none">
<path d="M390 963 c184 -7 368 -7 363 0 -2 4 -102 6 -221 5 -119 -1 -183 -3
-142 -5z"/>
<path d="M295 882 c-19 -63 -22 -67 -53 -70 -22 -2 -32 1 -32 10 0 10 -12 14
-37 13 -25 0 -37 -4 -36 -12 2 -9 -13 -13 -51 -13 -90 0 -86 15 -86 -346 0
-198 4 -322 10 -335 6 -11 20 -18 33 -18 20 1 20 2 2 6 -11 3 -23 10 -27 17
-14 20 -9 641 4 654 8 8 52 12 134 12 l122 0 22 65 c12 36 20 69 18 75 -2 5
-12 -21 -23 -58z"/>
<path d="M761 933 c0 -5 10 -35 22 -68 l22 -60 119 -3 c67 -1 126 -7 133 -14
10 -8 13 -79 13 -335 l0 -324 -22 -9 c-14 -5 -17 -9 -7 -9 37 -2 39 14 39 342
0 200 -4 325 -10 338 -10 17 -22 19 -135 19 l-123 0 -22 65 c-19 57 -31 81
-29 58z"/>
<path d="M435 771 c-57 -26 -135 -90 -169 -139 -33 -49 -30 -84 10 -105 l27
-14 -47 -12 c-66 -16 -108 -57 -108 -104 0 -21 7 -48 16 -61 40 -61 132 -125
201 -140 17 -3 41 -9 55 -12 47 -10 220 -6 272 6 74 18 136 51 186 101 47 47
63 90 50 131 -13 37 -37 55 -99 77 -46 15 -51 19 -31 25 27 9 43 36 37 65 -10
52 -127 160 -202 187 -55 19 -150 17 -198 -5z m50 -113 c-4 -46 -9 -90 -10
-98 -2 -8 -4 -18 -4 -22 -1 -5 -24 -8 -51 -8 -41 0 -56 5 -75 24 -22 22 -23
29 -14 53 19 51 54 93 94 113 66 33 68 31 60 -62z m192 49 c37 -25 73 -84 73
-120 0 -36 -35 -57 -92 -57 -54 0 -54 0 -63 110 -4 41 -7 77 -7 80 -1 17 5 20
30 14 15 -3 41 -16 59 -27z m-220 -241 c4 -4 8 -56 8 -117 1 -123 6 -118 -86
-98 -142 31 -177 190 -47 216 49 10 115 9 125 -1z m345 -24 c17 -17 23 -34 23
-68 0 -40 -5 -50 -36 -79 -24 -22 -54 -37 -88 -44 -93 -20 -88 -26 -89 105 l0
116 84 -4 c71 -2 87 -6 106 -26z"/>
<path d="M953 760 c-25 -10 -38 -48 -28 -80 13 -42 93 -46 109 -5 22 58 -25
107 -81 85z m69 -24 c15 -22 8 -56 -16 -71 -37 -24 -76 -3 -76 42 0 43 69 65
92 29z"/>
<path d="M950 721 c-14 -27 -2 -51 25 -51 32 0 49 23 35 49 -14 26 -46 27 -60
2z"/>
<path d="M75 110 c3 -5 8 -10 11 -10 2 0 4 5 4 10 0 6 -5 10 -11 10 -5 0 -7
-4 -4 -10z"/>
<path d="M135 110 c3 -5 8 -10 11 -10 2 0 4 5 4 10 0 6 -5 10 -11 10 -5 0 -7
-4 -4 -10z"/>
<path d="M195 110 c3 -5 8 -10 11 -10 2 0 4 5 4 10 0 6 -5 10 -11 10 -5 0 -7
-4 -4 -10z"/>
<path d="M255 110 c3 -5 8 -10 11 -10 2 0 4 5 4 10 0 6 -5 10 -11 10 -5 0 -7
-4 -4 -10z"/>
<path d="M318 113 c7 -3 16 -2 19 1 4 3 -2 6 -13 5 -11 0 -14 -3 -6 -6z"/>
<path d="M358 113 c7 -3 16 -2 19 1 4 3 -2 6 -13 5 -11 0 -14 -3 -6 -6z"/>
<path d="M395 110 c3 -5 8 -10 11 -10 2 0 4 5 4 10 0 6 -5 10 -11 10 -5 0 -7
-4 -4 -10z"/>
<path d="M455 110 c3 -5 8 -10 11 -10 2 0 4 5 4 10 0 6 -5 10 -11 10 -5 0 -7
-4 -4 -10z"/>
<path d="M515 110 c3 -5 8 -10 11 -10 2 0 4 5 4 10 0 6 -5 10 -11 10 -5 0 -7
-4 -4 -10z"/>
<path d="M575 110 c3 -5 8 -10 11 -10 2 0 4 5 4 10 0 6 -5 10 -11 10 -5 0 -7
-4 -4 -10z"/>
<path d="M638 113 c7 -3 16 -2 19 1 4 3 -2 6 -13 5 -11 0 -14 -3 -6 -6z"/>
<path d="M678 113 c7 -3 16 -2 19 1 4 3 -2 6 -13 5 -11 0 -14 -3 -6 -6z"/>
<path d="M715 110 c3 -5 8 -10 11 -10 2 0 4 5 4 10 0 6 -5 10 -11 10 -5 0 -7
-4 -4 -10z"/>
<path d="M775 110 c3 -5 8 -10 11 -10 2 0 4 5 4 10 0 6 -5 10 -11 10 -5 0 -7
-4 -4 -10z"/>
<path d="M835 110 c3 -5 8 -10 11 -10 2 0 4 5 4 10 0 6 -5 10 -11 10 -5 0 -7
-4 -4 -10z"/>
<path d="M895 110 c3 -5 8 -10 11 -10 2 0 4 5 4 10 0 6 -5 10 -11 10 -5 0 -7
-4 -4 -10z"/>
<path d="M958 113 c7 -3 16 -2 19 1 4 3 -2 6 -13 5 -11 0 -14 -3 -6 -6z"/>
<path d="M998 113 c7 -3 16 -2 19 1 4 3 -2 6 -13 5 -11 0 -14 -3 -6 -6z"/>
</g>
</svg>
